<svg id="Layer_1" data-name="Layer 1" xmlns="http://www.w3.org/2000/svg" viewBox="0 0 48.43 44.19"><defs><style>.cls-1{fill:#cb2026;}</style></defs><title>University of Utah Block U logo</title><polygon class="cls-1" points="0.2 0.19 0.2 13.37 4.59 13.37 4.59 35.29 13.38 44.02 35.25 44.02 44.03 35.29 44.03 13.37 48.43 13.37 48.43 0.19 26.51 0.19 26.51 13.37 30.91 13.37 30.91 30.84 17.72 30.84 17.72 13.37 22.12 13.37 22.12 0.19 0.2 0.19 0.2 0.19"/><path class="cls-1" d="M43.43,38.82a2.37,2.37,0,1,1-2.36,2.37h0a2.33,2.33,0,0,1,2.31-2.36Zm0,.37a2,2,0,1,0,0,4,1.91,1.91,0,0,0,1.88-2v0a1.93,1.93,0,0,0-1.86-2ZM43,42.56h-.42V39.92a4.74,4.74,0,0,1,.75-.06,1.41,1.41,0,0,1,.82.2.6.6,0,0,1,.24.54.67.67,0,0,1-.52.65h0c.23,0,.4.25.45.63a2.45,2.45,0,0,0,.16.66H44a2,2,0,0,1-.18-.67.49.49,0,0,0-.51-.48H43Zm0-1.47h.31c.35,0,.64-.12.64-.44s-.17-.47-.64-.47H43Z"/></svg>
