<?xml version="1.0" encoding="utf-8"?>
<!-- Generator: Adobe Illustrator 22.1.0, SVG Export Plug-In . SVG Version: 6.00 Build 0)  -->
<svg version="1.1" id="Layer_1" xmlns="http://www.w3.org/2000/svg" xmlns:xlink="http://www.w3.org/1999/xlink" x="0px" y="0px"
	 width="178px" height="44.2px" viewBox="0 0 178 44.2" style="enable-background:new 0 0 178 44.2;" xml:space="preserve">
<style type="text/css">
	.st0{fill:#CB2026;}
	.st1{fill:#FFFFFF;}
</style>
<title>University of Utah Logo</title>
<polygon class="st0" points="0.2,0.2 0.2,13.4 4.6,13.4 4.6,35.3 13.4,44 35.2,44 44,35.3 44,13.4 48.4,13.4 48.4,0.2 26.5,0.2
	26.5,13.4 30.9,13.4 30.9,30.8 17.7,30.8 17.7,13.4 22.1,13.4 22.1,0.2 0.2,0.2 "/>
<path class="st1" d="M57.6,0.7h-1.5c-0.6,0-0.8,0.1-1,0.3c-0.1,0.1-0.1,0.2-0.2,0.4c0,0.1,0,0.1-0.1,0.1s-0.1,0-0.1-0.2
	s0.2-1.1,0.2-1.2S55,0,55,0c0.1,0.1,0.3,0.1,0.4,0.1c0.3,0,0.7,0.1,1,0.1h4.1c0.3,0,0.7,0,1-0.1c0.1,0,0.1,0.1,0.1,0.2s0,0.9,0,1.2
	c0,0.1,0,0.2-0.1,0.2s-0.1,0-0.1-0.2V1.3c0-0.3-0.3-0.6-1.2-0.6h-1.3v4.2c0,0.9,0,1.8,0,2.2s0.1,0.5,0.4,0.6c0.2,0,0.4,0,0.5,0
	c0.1,0,0.2,0,0.2,0.1s-0.1,0.1-0.2,0.1c-0.7,0-1.3,0-1.6,0h-1.3c-0.1,0-0.2,0-0.2-0.1s0-0.1,0.2-0.1c0.1,0,0.2,0,0.4,0
	c0.2-0.1,0.3-0.3,0.3-0.6s0-1.2,0-2.2L57.6,0.7z"/>
<path class="st1" d="M69.3,3.4C69.3,3.4,69.4,3.4,69.3,3.4l0.1-0.3c0-1.6,0-1.9,0-2.2s-0.1-0.5-0.4-0.6c-0.1,0-0.3,0-0.4,0
	c-0.1,0-0.2,0-0.2-0.1s0.1-0.1,0.2-0.1c0.6,0,1.2,0,1.5,0h1.3c0.2,0,0.2,0,0.2,0.1s-0.1,0.1-0.2,0.1h-0.3c-0.3,0.1-0.4,0.2-0.4,0.6
	s0,0.6,0,2.2v1.8c0,0.9,0,1.8,0,2.2s0.1,0.5,0.4,0.6c0.2,0,0.3,0,0.5,0c0.1,0,0.2,0,0.2,0.1s-0.1,0.1-0.2,0.1c-0.7,0-1.3,0-1.6,0
	h-1.3c-0.2,0-0.2,0-0.2-0.1s0-0.1,0.2-0.1c0.1,0,0.2,0,0.4,0c0.2-0.1,0.2-0.3,0.3-0.6s0.1-1.2,0.1-2.2V4c0,0,0,0-0.1,0h-3.9
	c0,0-0.1,0-0.1,0c0,0,0,0,0,0V5c0,0.9,0,1.8,0,2.2s0.1,0.5,0.4,0.6c0.2,0,0.3,0,0.5,0c0.1,0,0.2,0,0.2,0.1s-0.1,0.1-0.2,0.1
	c-0.7,0-1.3,0-1.6,0h-1.3c-0.1,0-0.2,0-0.2-0.1s0-0.1,0.2-0.1c0.1,0,0.2,0,0.4,0c0.2-0.1,0.2-0.3,0.3-0.6C64,6.4,64,5.7,64,5V3.1
	c0-1.6,0-1.9,0-2.2s-0.1-0.5-0.5-0.6c-0.1,0-0.3,0-0.4,0c-0.1,0-0.2,0-0.2-0.1s0.1-0.1,0.2-0.1c0.6,0,1.2,0,1.5,0H66
	c0.2,0,0.2,0,0.2,0.1S66.1,0.3,66,0.3h-0.3c-0.3,0.1-0.4,0.2-0.4,0.6s0,0.6,0,2.2v0.2c0,0,0,0.1,0.1,0.1L69.3,3.4z"/>
<path class="st1" d="M74.6,3.1c0-1.6,0-1.9,0-2.2s-0.1-0.5-0.4-0.6c-0.1,0-0.3,0-0.4,0c-0.1,0-0.2,0-0.2-0.1s0.1-0.1,0.2-0.1
	c0.6,0,1.2,0,1.5,0h2.6l0.4-0.1c0.1,0,0.1,0,0.2,0c0,0,0.1,0,0.1,0.1s0,0.2-0.1,0.7c0,0.1,0,0.6-0.1,0.7s0,0.1-0.1,0.1
	s-0.1,0-0.1-0.1c0-0.1,0-0.3-0.1-0.4c-0.1-0.2-0.2-0.4-0.7-0.4c-0.2,0-1.2,0-1.5,0c0,0-0.1,0-0.1,0.1v2.6c0,0.1,0,0.1,0.1,0.1
	c0.2,0,1.4,0,1.7,0s0.4,0,0.5-0.2s0.1-0.1,0.2-0.1s0.1,0,0.1,0.1s0,0.2-0.1,0.8c0,0.2,0,0.6,0,0.7s0,0.2-0.1,0.2s-0.1,0-0.1-0.1
	c0-0.1,0-0.2,0-0.4c0-0.2-0.2-0.4-0.6-0.4c-0.2,0-1.2,0-1.5,0c-0.1,0-0.1,0-0.1,0.1V5c0,0.3,0,1.3,0,1.6c0,0.7,0.2,0.9,1.2,0.9
	c0.3,0,0.7,0,1-0.1c0.3-0.1,0.4-0.3,0.5-0.8c0-0.1,0-0.2,0.1-0.2s0.1,0.1,0.1,0.2c0,0.4-0.1,0.8-0.1,1.2C78.6,8,78.5,8,78.2,8
	C76.6,8,75.9,8,75.3,8H74c-0.1,0-0.2,0-0.2-0.1s0-0.1,0.2-0.1c0.1,0,0.2,0,0.4,0c0.2-0.1,0.3-0.3,0.3-0.6s0-1.2,0-2.2L74.6,3.1z"/>
<path class="st1" d="M56.6,18c0-2.7,0-3.2,0-3.7s-0.2-0.9-0.7-1c-0.2,0-0.4,0-0.6,0c-0.1,0-0.1,0-0.1-0.1c0-0.1,0.1-0.1,0.3-0.1
	c0.8,0,1.8,0,2,0s1.2,0,1.7,0c0.2,0,0.3,0,0.3,0.1c0,0.1-0.1,0.1-0.1,0.1c0,0,0,0,0,0c-0.1,0-0.3,0-0.4,0c-0.5,0.1-0.6,0.4-0.6,1
	s0,1,0,3.7v2.4c0,2.5,0.5,3.5,1.3,4.2c0.7,0.7,1.6,1,2.6,0.9c1,0,2-0.5,2.7-1.2c0.8-1.3,1.1-2.7,1-4.2V18c0-2.7,0-3.2,0-3.7
	s-0.2-0.9-0.7-1c-0.2,0-0.4,0-0.6,0c-0.1,0-0.1,0-0.1-0.1c0-0.1,0.1-0.1,0.3-0.1c0.8,0,1.7,0,1.8,0s0.9,0,1.4,0c0.2,0,0.3,0,0.3,0.1
	c0,0.1-0.1,0.1-0.1,0.1c-0.1,0-0.3,0-0.4,0c-0.5,0.1-0.6,0.4-0.6,1s0,1,0,3.7v1.8c0,1.9-0.2,3.9-1.6,5.1c-1,0.9-2.2,1.3-3.5,1.3
	c-1.3,0.1-2.7-0.4-3.7-1.2c-0.8-0.8-1.5-2-1.5-4.5L56.6,18z"/>
<path class="st1" d="M73.2,23.6c0,1.4,0.2,1.9,0.7,2c0.3,0.1,0.6,0.1,0.8,0.1c0.1,0,0.1,0,0.1,0.1S74.7,26,74.5,26c-1,0-1.7,0-1.8,0
	s-0.9,0-1.6,0c-0.2,0-0.3,0-0.3-0.1s0-0.1,0.1-0.1c0.2,0,0.5,0,0.7-0.1c0.4-0.1,0.5-0.6,0.5-2.2v-9.8c0-0.7,0.1-0.9,0.2-0.9
	s0.4,0.4,0.6,0.5s2.8,3.1,5.5,5.9c1.7,1.8,3.6,3.9,4.1,4.5l-0.2-8.7c0-1.1-0.1-1.5-0.7-1.6c-0.3-0.1-0.6-0.1-0.8-0.1
	c-0.1,0-0.1-0.1-0.1-0.1S80.8,13,81,13c0.8,0,1.6,0,1.8,0s0.8,0,1.4,0c0.2,0,0.3,0,0.3,0.1s-0.1,0.1-0.2,0.1c-0.1,0-0.3,0-0.4,0
	c-0.6,0.1-0.6,0.5-0.6,1.5v10.1c0,1.1,0,1.2-0.2,1.2s-0.3-0.2-1.2-1.1c-0.2-0.2-2.7-2.7-4.5-4.6c-2-2.1-3.9-4.3-4.5-4.9L73.2,23.6z"
	/>
<path class="st1" d="M91.2,21c0,1.6,0,3,0.1,3.7c0.1,0.5,0.2,0.9,0.7,0.9c0.3,0,0.5,0.1,0.8,0.1c0.1,0,0.1,0,0.1,0.1
	S92.8,26,92.6,26c-0.9,0-2,0-2.1,0s-1.2,0-1.7,0c-0.2,0-0.3,0-0.3-0.1s0-0.1,0.1-0.1c0.2,0,0.3,0,0.5-0.1c0.3-0.1,0.4-0.4,0.5-0.9
	c0.1-0.7,0.1-2.1,0.1-3.7v-3c0-2.7,0-3.2,0-3.7s-0.2-0.9-0.6-1c-0.2,0-0.4-0.1-0.5-0.1c-0.1,0-0.1,0-0.1-0.1c0,0,0,0,0,0
	c0-0.1,0.1-0.1,0.3-0.1c0.6,0,1.7,0,1.7,0s1.2,0,1.7,0c0.2,0,0.3,0,0.3,0.1c0,0.1-0.1,0.1-0.1,0.1c-0.1,0-0.3,0-0.4,0
	c-0.5,0.1-0.6,0.4-0.6,1s0,1,0,3.7L91.2,21z"/>
<path class="st1" d="M101.9,23.9c1-2.3,3.3-8.3,3.7-9.5c0.1-0.2,0.1-0.4,0.2-0.6c0-0.2-0.1-0.3-0.2-0.4c-0.2,0-0.4-0.1-0.7-0.1
	c-0.1,0-0.2,0-0.2-0.1s0.1-0.1,0.4-0.1c0.7,0,1.5,0,1.7,0s0.8,0,1.3,0c0.2,0,0.3,0,0.3,0.1s-0.1,0.1-0.2,0.1c-0.3,0-0.6,0.1-0.8,0.2
	c-0.2,0.2-0.5,0.4-0.9,1.6c-0.2,0.5-1.1,2.5-1.9,4.7c-1,2.5-1.8,4.4-2.2,5.2c-0.5,1-0.6,1.3-0.7,1.3s-0.3-0.2-0.6-1.1l-4.2-10.5
	c-0.4-1-0.6-1.1-1.2-1.3c-0.2,0-0.4-0.1-0.7-0.1c-0.1,0-0.1-0.1-0.1-0.1s0.2-0.1,0.4-0.1c0.8,0,1.8,0,2,0s0.9,0,1.6,0
	c0.3,0,0.5,0,0.5,0.1s0,0.1-0.2,0.1c-0.2,0-0.4,0-0.7,0.1c-0.1,0.1-0.2,0.2-0.2,0.3c0.1,0.5,0.3,1,0.5,1.4L101.9,23.9z"/>
<path class="st1" d="M111.8,18c0-2.7,0-3.2,0-3.7s-0.2-0.9-0.7-1c-0.2,0-0.4,0-0.6,0c-0.1,0-0.1,0-0.1-0.1c0-0.1,0.1-0.1,0.3-0.1
	c0.8,0,1.9,0,1.9,0s3.5,0,3.9,0c0.2,0,0.5,0,0.7-0.1c0.1,0,0.2-0.1,0.2-0.1s0.1,0.1,0.1,0.1s-0.1,0.3-0.1,0.8c0,0.2,0,0.9-0.1,1.1
	s0,0.2-0.1,0.2S117,15,117,14.9c0-0.2,0-0.4-0.1-0.6c-0.1-0.3-0.3-0.5-1.2-0.6c-0.3,0-2.2-0.1-2.3-0.1s-0.1,0.1-0.1,0.2v4.7
	c0,0.1,0,0.2,0.1,0.2s2.3,0,2.7,0s0.7-0.1,0.8-0.2s0.2-0.2,0.3-0.2s0.1,0,0.1,0.1s-0.1,0.4-0.1,1c0,0.3-0.1,1-0.1,1.1s0,0.3-0.1,0.3
	s-0.1-0.1-0.1-0.2c0-0.2,0-0.4-0.1-0.6c-0.1-0.2-0.2-0.5-0.9-0.6c-0.5,0-2.2-0.1-2.5-0.1c-0.1,0-0.1,0-0.1,0.1c0,0,0,0,0,0V21
	c0,0.6,0,2.6,0,2.9c0,1.2,0.3,1.4,2,1.4c0.6,0,1.1,0,1.7-0.2c0.4-0.2,0.7-0.5,0.8-1.2c0-0.2,0.1-0.2,0.2-0.2s0.1,0.1,0.1,0.2
	c0,0.6-0.1,1.1-0.2,1.7c-0.1,0.4-0.2,0.4-0.9,0.4c-2.6,0-3.7-0.1-4.2-0.1c0,0-0.3,0-0.7,0h-1c-0.2,0-0.3,0-0.3-0.1s0-0.1,0.1-0.1
	c0.2,0,0.3,0,0.5-0.1c0.3-0.1,0.4-0.4,0.5-0.9c0.1-0.7,0.1-2.1,0.1-3.7L111.8,18z"/>
<path class="st1" d="M123.1,18c0-2.7,0-3.2,0-3.7s-0.2-0.9-0.7-1c-0.2,0-0.4,0-0.6,0c-0.1,0-0.1,0-0.1-0.1c0-0.1,0.1-0.1,0.3-0.1
	c0.8,0,1.9,0,1.9,0s1.5,0,2,0c1.1-0.1,2.2,0.2,3.1,0.8c0.7,0.6,1.2,1.4,1.2,2.3c-0.1,1.6-0.8,3-2.1,4c1.4,1.8,2.6,3.3,3.6,4.4
	c0.5,0.6,1.3,1.1,2.1,1.2c0.2,0,0.4,0.1,0.7,0c0.1,0,0.2,0,0.2,0.1s-0.1,0.1-0.4,0.1H133c-0.6,0.1-1.3-0.1-1.8-0.3
	c-0.9-0.7-1.7-1.5-2.3-2.5c-0.7-0.9-1.5-2.1-1.9-2.5c-0.1-0.1-0.1-0.1-0.2-0.1h-2.1c-0.1,0-0.1,0-0.1,0.1V21c0,1.6,0,3,0.1,3.7
	c0,0.5,0.2,0.9,0.7,0.9c0.3,0,0.5,0.1,0.8,0.1c0.1,0,0.1,0,0.1,0.1s-0.1,0.1-0.3,0.1c-0.9,0-2,0-2.1,0s-1.1,0-1.6,0
	c-0.2,0-0.3,0-0.3-0.1s0-0.1,0.1-0.1c0.2,0,0.3,0,0.5-0.1c0.3-0.1,0.4-0.4,0.5-0.9c0.1-0.7,0.1-2.1,0.1-3.7L123.1,18z M124.5,19.5
	c0,0.1,0,0.2,0.1,0.2c0.6,0.2,1.2,0.3,1.8,0.3c0.5,0,0.9-0.1,1.3-0.3c0.7-0.7,1.1-1.7,1-2.6c0-2.1-1.1-3.4-3-3.4
	c-0.4,0-0.8,0-1.2,0.1c-0.1,0-0.1,0.1-0.1,0.2L124.5,19.5z"/>
<path class="st1" d="M135.6,25.7c-0.2-0.1-0.3-0.2-0.3-0.6c0-0.9,0.1-1.5,0.1-1.8s0.1-0.3,0.1-0.3s0.1,0.1,0.1,0.2
	c0,0.2,0,0.4,0,0.6c0.3,1.1,1.4,1.9,2.5,1.8c1.3,0.1,2.4-0.9,2.4-2.1c0-0.1,0-0.1,0-0.2c0-1.2-0.5-1.9-2-3.1l-0.8-0.6
	c-1.8-1.5-2.2-2.5-2.2-3.7c0-1.8,1.4-3.1,3.6-3.1c0.5,0,1.1,0,1.6,0.2c0.2,0.1,0.4,0.1,0.6,0.1c0.1,0,0.2,0,0.2,0.1
	s-0.1,0.6-0.1,1.8c0,0.3,0,0.4-0.1,0.4s-0.1-0.1-0.1-0.2c0-0.3-0.1-0.6-0.2-0.9c-0.1-0.2-0.6-0.9-2.1-0.9c-1.1-0.1-2,0.7-2.1,1.8
	c0,0.1,0,0.2,0,0.2c0,1,0.5,1.6,2.1,2.9l0.5,0.4c2,1.6,2.5,2.7,2.5,4c0,1.1-0.5,2.2-1.5,2.9c-0.8,0.5-1.7,0.8-2.6,0.7
	C137.1,26.2,136.3,26,135.6,25.7z"/>
<path class="st1" d="M148.8,21c0,1.6,0,3,0.1,3.7c0.1,0.5,0.2,0.9,0.7,0.9c0.3,0,0.5,0.1,0.8,0.1c0.1,0,0.1,0,0.1,0.1
	s-0.1,0.1-0.3,0.1c-0.9,0-2,0-2.1,0s-1.2,0-1.7,0c-0.2,0-0.3,0-0.3-0.1s0-0.1,0.1-0.1c0.2,0,0.3,0,0.5-0.1c0.4-0.1,0.4-0.4,0.5-0.9
	c0.1-0.7,0.1-2.1,0.1-3.7v-3c0-2.7,0-3.2,0-3.7s-0.2-0.9-0.6-1c-0.2,0-0.4-0.1-0.5-0.1c-0.1,0-0.1,0-0.1-0.1c0-0.1,0.1-0.1,0.3-0.1
	c0.6,0,1.6,0,1.7,0s1.2,0,1.7,0c0.2,0,0.3,0,0.3,0.1c0,0.1-0.1,0.1-0.1,0.1c0,0,0,0,0,0c-0.1,0-0.3,0-0.4,0c-0.5,0.1-0.6,0.4-0.6,1
	s0,1,0,3.7L148.8,21z"/>
<path class="st1" d="M159.4,21c0,1.6,0,3,0.1,3.7c0.1,0.5,0.2,0.9,0.7,0.9c0.3,0,0.5,0.1,0.8,0.1c0.1,0,0.1,0,0.1,0.1
	S161,26,160.8,26c-0.9,0-2,0-2.1,0s-1.2,0-1.7,0c-0.2,0-0.3,0-0.3-0.1s0-0.1,0.1-0.1c0.2,0,0.3,0,0.5-0.1c0.3-0.1,0.4-0.4,0.5-0.9
	C158,24,158,22.6,158,21v-7.3h-2.5c-1.1,0-1.5,0.1-1.8,0.6c-0.1,0.2-0.2,0.3-0.3,0.5c0,0.1-0.1,0.2-0.2,0.2s-0.1-0.1-0.1-0.2
	s0.3-1.6,0.4-1.8s0.1-0.3,0.2-0.3c0.2,0.1,0.5,0.2,0.8,0.2c0.5,0.1,1.1,0.1,1.4,0.1h6.4c0.4,0,0.8,0,1.2-0.1c0.2,0,0.3-0.1,0.5-0.1
	c0.1,0,0.1,0.1,0.1,0.2c0,0.5,0,1.7,0,1.9s-0.1,0.2-0.1,0.2s-0.1-0.1-0.1-0.3v-0.2c-0.1-0.5-0.5-0.9-2.1-0.9h-2.2L159.4,21z"/>
<path class="st1" d="M170.8,21.5c0-0.6-0.1-1.2-0.4-1.8c-0.1-0.3-2.4-4-3-4.9c-0.3-0.5-0.7-0.9-1.2-1.3c-0.2-0.2-0.5-0.2-0.7-0.3
	c-0.1,0-0.2,0-0.2-0.1s0.1-0.1,0.2-0.1h1.7c0.1,0,0.8,0,1.4,0c0.2,0,0.2,0,0.2,0.1s-0.1,0.1-0.3,0.1c-0.1,0-0.2,0.2-0.2,0.3
	c0,0.2,0.1,0.5,0.2,0.7c0.3,0.5,2.9,4.9,3.2,5.4c0.3-0.7,2.5-4.5,2.8-5c0.2-0.3,0.3-0.6,0.3-0.9c0-0.2-0.1-0.4-0.3-0.5
	s-0.3-0.1-0.3-0.2s0.1-0.1,0.3-0.1c0.4,0,1,0,1.1,0h1.7c0.1,0,0.2,0,0.2,0.1s-0.1,0.1-0.2,0.1c-0.3,0-0.5,0.1-0.8,0.2
	c-0.4,0.2-0.7,0.5-0.9,0.9c-1.2,1.8-2.3,3.6-3.3,5.4c-0.2,0.5-0.3,1.1-0.3,1.7V23c0,0.3,0,1,0.1,1.7c0,0.5,0.2,0.9,0.7,0.9
	c0.3,0,0.5,0.1,0.8,0.1c0.1,0,0.1,0,0.1,0.1s-0.1,0.1-0.3,0.1c-0.9,0-2,0-2.1,0s-1.2,0-1.7,0c-0.2,0-0.3,0-0.3-0.1s0-0.1,0.1-0.1
	c0.2,0,0.3,0,0.5-0.1c0.3-0.1,0.5-0.4,0.5-0.9c0.1-0.7,0.1-1.4,0.1-1.7L170.8,21.5z"/>
<path class="st1" d="M62.4,30.7c3.9,0,6.7,2.4,6.7,6.4c0.1,3.7-2.7,6.8-6.5,7c-0.1,0-0.3,0-0.4,0c-4.7,0-6.7-3.7-6.7-6.7
	c0-3.7,2.9-6.7,6.6-6.7C62.3,30.7,62.3,30.7,62.4,30.7z M62.8,43.5c1.6,0,4.7-0.9,4.7-5.9c0-4.1-2.5-6.3-5.2-6.3c-2.9,0-5,1.9-5,5.6
	C57.3,41,59.7,43.5,62.8,43.5z"/>
<path class="st1" d="M73.6,36c0-2.7,0-3.2,0-3.7s-0.2-0.9-0.7-1c-0.2,0-0.4-0.1-0.6-0.1c-0.1,0-0.1,0-0.1-0.1s0.1-0.1,0.3-0.1
	c0.8,0,1.9,0.1,1.9,0.1c0.3,0,3.8,0,4.2,0c0.3,0,0.5,0,0.8-0.1c0.1,0,0.2-0.1,0.2-0.1s0.1,0.1,0.1,0.1s-0.1,0.3-0.1,0.8
	c0,0.2-0.1,0.9-0.1,1.1s0,0.2-0.1,0.2s-0.1-0.1-0.1-0.2c0-0.2-0.1-0.4-0.2-0.7c-0.3-0.4-0.7-0.6-1.2-0.5h-2.6c-0.1,0-0.2,0-0.2,0.2
	v4.7c0,0.1,0,0.2,0.1,0.2h2.2c0.3,0,0.5,0,0.8,0c0.4,0,0.6-0.1,0.8-0.3s0.1-0.2,0.2-0.2s0.1,0,0.1,0.1s-0.1,0.4-0.1,1
	c0,0.3-0.1,1-0.1,1.2s0,0.3-0.1,0.3s-0.1-0.1-0.1-0.2c0-0.2-0.1-0.4-0.1-0.6c-0.2-0.4-0.5-0.6-0.9-0.6c-0.4,0-2.3,0-2.6,0
	c-0.1,0-0.1,0-0.1,0.2V39c0,1.6,0,3,0.1,3.7c0,0.5,0.2,0.9,0.7,0.9c0.3,0,0.5,0.1,0.8,0.1c0.1,0,0.1,0,0.1,0.1S76.7,44,76.5,44
	c-0.9,0-2,0-2.1,0s-1.2,0-1.7,0c-0.2,0-0.3,0-0.3-0.1s0-0.1,0.1-0.1c0.2,0,0.3,0,0.5-0.1c0.3-0.1,0.4-0.4,0.5-0.9
	c0.1-0.7,0.1-2.1,0.1-3.7L73.6,36z"/>
<path class="st1" d="M90.1,36c0-2.7,0-3.2,0-3.7s-0.2-0.9-0.7-1c-0.2,0-0.4-0.1-0.6-0.1c-0.1,0-0.1,0-0.1-0.1s0.1-0.1,0.3-0.1
	c0.8,0,1.8,0,2,0l1.7-0.1c0.2,0,0.3,0,0.3,0.1s-0.1,0.1-0.1,0.1c-0.1,0-0.3,0-0.4,0.1c-0.5,0.1-0.6,0.4-0.6,1c0,0.6,0,1,0,3.7v2.4
	c0,2.5,0.6,3.5,1.3,4.2c0.7,0.7,1.6,1,2.6,0.9c1,0,2-0.5,2.7-1.2c0.8-1,1-2.4,1-4.2V36c0-2.7,0-3.2,0-3.7s-0.2-0.9-0.7-1
	c-0.2,0-0.4-0.1-0.6-0.1c-0.1,0-0.1,0-0.1-0.1s0.1-0.1,0.3-0.1c0.8,0,1.7,0,1.8,0s0.9,0,1.4-0.1c0.2,0,0.3,0,0.3,0.1
	s-0.1,0.1-0.1,0.1c-0.1,0-0.3,0-0.4,0.1c-0.5,0.1-0.6,0.4-0.6,1c0,0.6,0,1,0,3.7v1.8c0,1.9-0.2,3.9-1.6,5.1c-1,0.9-2.2,1.3-3.5,1.3
	c-1.3,0.1-2.7-0.4-3.7-1.2c-0.8-0.8-1.5-2-1.5-4.5L90.1,36z"/>
<path class="st1" d="M109.8,39c0,1.6,0,3,0.1,3.7c0,0.5,0.2,0.9,0.7,0.9c0.3,0,0.5,0.1,0.8,0.1c0.1,0,0.1,0,0.1,0.1
	s-0.1,0.1-0.3,0.1c-0.9,0-2,0-2.1,0s-1.2,0-1.7,0c-0.2,0-0.3,0-0.3-0.1s0-0.1,0.1-0.1c0.2,0,0.3,0,0.5-0.1c0.3-0.1,0.4-0.4,0.5-0.9
	c0.1-0.7,0.1-2.1,0.1-3.7v-7.3h-2.5c-1.1,0-1.5,0.1-1.8,0.6c-0.1,0.2-0.2,0.3-0.3,0.5c0,0.1-0.1,0.2-0.2,0.2s-0.1,0-0.1-0.2
	s0.3-1.6,0.4-1.8s0.1-0.3,0.2-0.3c0.2,0.1,0.5,0.2,0.8,0.2c0.5,0,1.2,0.1,1.3,0.1h6.4c0.4,0,0.8,0,1.2-0.1c0.3,0,0.4-0.1,0.5-0.1
	s0.1,0.1,0.1,0.2c0,0.5-0.1,1.7-0.1,1.9s-0.1,0.2-0.1,0.2s-0.1,0-0.1-0.3v-0.2c-0.1-0.5-0.5-0.9-2.1-0.9h-2.2L109.8,39z"/>
<path class="st1" d="M120.6,31.4c0.2-0.6,0.3-0.7,0.4-0.7s0.2,0.1,0.4,0.6s3,7.7,4,10.3c0.6,1.5,1.1,1.8,1.5,1.9
	c0.2,0.1,0.5,0.1,0.7,0.1c0.1,0,0.2,0,0.2,0.1s-0.2,0.1-0.3,0.1s-1.5,0-2.7,0c-0.3,0-0.5,0-0.5-0.1c0-0.1,0.1-0.1,0.1-0.1l0,0
	c0.1,0,0.2-0.2,0.1-0.5l-1.6-4.2c0-0.1-0.1-0.1-0.2-0.1h-3.7c-0.1,0-0.1,0-0.2,0.1l-1,3c-0.1,0.4-0.2,0.7-0.2,1.1
	c0,0.3,0.4,0.5,0.7,0.5h0.2c0.1,0,0.2,0,0.2,0.1s-0.1,0.1-0.3,0.1c-0.4,0-1.2,0-1.3,0s-1.1,0-1.9,0c-0.2,0-0.3,0-0.3-0.1
	s0.1-0.1,0.2-0.1h0.5c0.8-0.1,1.1-0.8,1.4-1.6L120.6,31.4z M122.4,38.3c0.1,0,0.1,0,0.1-0.1l-1.6-4.6c-0.1-0.2-0.2-0.2-0.3,0
	l-1.5,4.6c0,0.1,0,0.1,0,0.1H122.4z"/>
<path class="st1" d="M141.3,39c0,1.6,0,3,0.1,3.7c0,0.5,0.1,0.9,0.7,0.9c0.3,0,0.5,0.1,0.8,0.1c0.1,0,0.1,0,0.1,0.1
	s-0.1,0.1-0.3,0.1c-0.9,0-2,0-2.1,0s-1.2,0-1.7,0c-0.2,0-0.3,0-0.3-0.1s0-0.1,0.1-0.1c0.2,0,0.3,0,0.5-0.1c0.3-0.1,0.4-0.4,0.5-0.9
	c0.1-0.7,0.1-2.1,0.1-3.7v-1.8c0-0.1,0-0.1-0.1-0.1c0,0,0,0,0,0h-7.3c-0.1,0-0.1,0-0.1,0.1V39c0,1.6,0,3,0.1,3.7
	c0.1,0.5,0.1,0.9,0.7,0.9c0.3,0,0.5,0.1,0.8,0.1c0.1,0,0.1,0,0.1,0.1S134,44,133.8,44c-0.9,0-2,0-2.1,0S130.5,44,130,44
	c-0.2,0-0.3,0-0.3-0.1s0-0.1,0.1-0.1c0.2,0,0.3,0,0.5-0.1c0.3-0.1,0.4-0.4,0.5-0.9C131,42,131,40.6,131,39v-3c0-2.7,0-3.2,0-3.7
	s-0.2-0.9-0.7-1c-0.2,0-0.4-0.1-0.6-0.1c-0.1,0-0.1,0-0.1-0.1s0.1-0.1,0.3-0.1c0.8,0,1.9,0,1.9,0l1.7-0.1c0.2,0,0.3,0,0.3,0.1
	s-0.1,0.1-0.1,0.1c-0.1,0-0.3,0-0.4,0.1c-0.5,0.1-0.6,0.4-0.6,1c0,0.6,0,1,0,3.7v0.4c0,0.1,0.1,0.1,0.1,0.1h7.3c0,0,0.1,0,0.1-0.1
	V36c0-2.7,0-3.2,0-3.7s-0.2-0.9-0.7-1c-0.2,0-0.4-0.1-0.6-0.1c-0.1,0-0.1,0-0.1-0.1s0.1-0.1,0.3-0.1c0.8,0,1.9,0,1.9,0l1.6-0.1
	c0.2,0,0.3,0,0.3,0.1s-0.1,0.1-0.1,0.1c-0.1,0-0.3,0-0.4,0.1c-0.5,0.1-0.6,0.4-0.6,1c0,0.6,0,1,0,3.7L141.3,39z"/>
<path class="st1" d="M148.9,30.9c1.5,0,2.6,1.2,2.6,2.6s-1.2,2.6-2.6,2.6c-1.5,0-2.6-1.2-2.6-2.6c0,0,0,0,0,0
	C146.2,32.1,147.4,30.9,148.9,30.9C148.8,30.9,148.9,30.9,148.9,30.9z M148.9,31.3c-1.2,0-2.2,1-2.2,2.2c0,1.2,1,2.2,2.2,2.2
	c1.2,0,2.1-1,2.1-2.2c0,0,0,0,0,0C151,32.3,150.1,31.3,148.9,31.3C148.9,31.3,148.9,31.3,148.9,31.3z M148.4,35.1h-0.5v-2.9
	c0.3,0,0.6-0.1,0.8-0.1c0.3,0,0.6,0.1,0.9,0.2c0.2,0.1,0.3,0.4,0.3,0.6c0,0.3-0.2,0.6-0.6,0.7l0,0c0.3,0,0.4,0.3,0.5,0.7
	c0,0.3,0.1,0.5,0.2,0.7h-0.5c-0.1-0.2-0.2-0.5-0.2-0.8c0-0.3-0.3-0.5-0.6-0.5c0,0,0,0-0.1,0h-0.3L148.4,35.1z M148.4,33.4h0.3
	c0.4,0,0.7-0.1,0.7-0.5s-0.2-0.5-0.7-0.5c-0.1,0-0.2,0-0.3,0V33.4z"/>
</svg>
